<svg xmlns="http://www.w3.org/2000/svg" viewBox="0 0 64 64" role="img" aria-label="Catholic">
  <title>Catholic</title>
  <defs>
    <linearGradient id="tile" x1="0" y1="0" x2="0.35" y2="1">
      <stop offset="0" stop-color="#17324F"/>
      <stop offset="0.55" stop-color="#0F2540"/>
      <stop offset="1" stop-color="#08172A"/>
    </linearGradient>
    <linearGradient id="gold" x1="0.15" y1="0" x2="0.85" y2="1">
      <stop offset="0" stop-color="#F3E0AC"/>
      <stop offset="0.38" stop-color="#D8B871"/>
      <stop offset="0.72" stop-color="#B08D4F"/>
      <stop offset="1" stop-color="#8C6C34"/>
    </linearGradient>
  </defs>

  <rect width="64" height="64" rx="15" fill="url(#tile)"/>
  <rect x="3.25" y="3.25" width="57.5" height="57.5" rx="12" fill="none"
        stroke="url(#gold)" stroke-opacity="0.42" stroke-width="1"/>

  <!-- halo -->
  <circle cx="32" cy="27" r="13.25" fill="none" stroke="url(#gold)" stroke-opacity="0.38" stroke-width="1.35"/>

  <!-- cross with flared (patée) terminals -->
  <path fill="url(#gold)" d="
    M32 8.5
    c1.9 0 3.35 1.05 3.35 1.05
    -.95 1.6-1.2 3.15-1.2 5.1
    v8.2
    h6.15
    c1.95 0 3.5-.25 5.1-1.2
    0 0 1.05 1.45 1.05 3.35
    s-1.05 3.35-1.05 3.35
    c-1.6-.95-3.15-1.2-5.1-1.2
    h-6.15
    v20.6
    c0 1.95.25 3.5 1.2 5.1
    0 0-1.45 1.05-3.35 1.05
    s-3.35-1.05-3.35-1.05
    c.95-1.6 1.2-3.15 1.2-5.1
    v-20.6
    h-6.15
    c-1.95 0-3.5.25-5.1 1.2
    0 0-1.05-1.45-1.05-3.35
    s1.05-3.35 1.05-3.35
    c1.6.95 3.15 1.2 5.1 1.2
    h6.15
    v-8.2
    c0-1.95-.25-3.5-1.2-5.1
    0 0 1.45-1.05 3.35-1.05
    z"/>
</svg>
